<?xml version="1.0" encoding="UTF-8" standalone="no"?><svg xmlns="http://www.w3.org/2000/svg" xmlns:xlink="http://www.w3.org/1999/xlink" contentScriptType="application/ecmascript" contentStyleType="text/css" height="691px" preserveAspectRatio="none" style="width:1968px;height:691px;" version="1.1" viewBox="0 0 1968 691" width="1968px" zoomAndPan="magnify"><defs><filter height="300%" id="f1tj1472rm7a66" width="300%" x="-1" y="-1"><feGaussianBlur result="blurOut" stdDeviation="2.0"/><feColorMatrix in="blurOut" result="blurOut2" type="matrix" values="0 0 0 0 0 0 0 0 0 0 0 0 0 0 0 0 0 0 .4 0"/><feOffset dx="4.0" dy="4.0" in="blurOut2" result="blurOut3"/><feBlend in="SourceGraphic" in2="blurOut3" mode="normal"/></filter></defs><g><text fill="#000000" font-family="sans-serif" font-size="18" lengthAdjust="spacingAndGlyphs" textLength="161" x="909.5" y="19.2419">User Flow Diagram</text><!--MD5=[b6603af9a7cd7a53d10774573283faa9]
cluster forgotten_password--><polygon fill="#FFFFFF" filter="url(#f1tj1472rm7a66)" points="22,48.5158,168,48.5158,175,73.5838,563,73.5838,563,679.5158,22,679.5158,22,48.5158" style="stroke: #000000; stroke-width: 1.5;"/><line style="stroke: #000000; stroke-width: 1.5;" x1="22" x2="175" y1="73.5838" y2="73.5838"/><text fill="#000000" font-family="sans-serif" font-size="14" font-weight="bold" lengthAdjust="spacingAndGlyphs" textLength="140" x="26" y="65.4818">forgotten_password</text><!--MD5=[b8e8f05765f8aabfbcdb4df279087e68]
cluster login--><polygon fill="#FFFFFF" filter="url(#f1tj1472rm7a66)" points="587,48.5158,628,48.5158,635,73.5838,892,73.5838,892,514.5158,587,514.5158,587,48.5158" style="stroke: #000000; stroke-width: 1.5;"/><line style="stroke: #000000; stroke-width: 1.5;" x1="587" x2="635" y1="73.5838" y2="73.5838"/><text fill="#000000" font-family="sans-serif" font-size="14" font-weight="bold" lengthAdjust="spacingAndGlyphs" textLength="35" x="591" y="65.4818">login</text><!--MD5=[c76636b982c93834323cdd7defdc2dd3]
cluster policies--><polygon fill="#FFFFFF" filter="url(#f1tj1472rm7a66)" points="916,48.5158,974,48.5158,981,73.5838,1515,73.5838,1515,349.5158,916,349.5158,916,48.5158" style="stroke: #000000; stroke-width: 1.5;"/><line style="stroke: #000000; stroke-width: 1.5;" x1="916" x2="981" y1="73.5838" y2="73.5838"/><text fill="#000000" font-family="sans-serif" font-size="14" font-weight="bold" lengthAdjust="spacingAndGlyphs" textLength="52" x="920" y="65.4818">policies</text><!--MD5=[3463acad58c6dd4bee6554fcba7014ba]
cluster registration--><polygon fill="#FFFFFF" filter="url(#f1tj1472rm7a66)" points="1539,48.5158,1627,48.5158,1634,73.5838,1946,73.5838,1946,514.5158,1539,514.5158,1539,48.5158" style="stroke: #000000; stroke-width: 1.5;"/><line style="stroke: #000000; stroke-width: 1.5;" x1="1539" x2="1634" y1="73.5838" y2="73.5838"/><text fill="#000000" font-family="sans-serif" font-size="14" font-weight="bold" lengthAdjust="spacingAndGlyphs" textLength="82" x="1543" y="65.4818">registration</text><!--MD5=[5a1d283be22b9a1fa6cc7a2acf82ea6a]
entity forgotten_password.forgot_password--><ellipse cx="298" cy="96.0158" fill="#FEFECE" filter="url(#f1tj1472rm7a66)" rx="8" ry="8" style="stroke: #A80036; stroke-width: 1.5;"/><path d="M298,104.0158 L298,131.0158 M285,112.0158 L311,112.0158 M298,131.0158 L285,146.0158 M298,131.0158 L311,146.0158 " fill="none" filter="url(#f1tj1472rm7a66)" style="stroke: #A80036; stroke-width: 1.5;"/><text fill="#000000" font-family="sans-serif" font-size="14" lengthAdjust="spacingAndGlyphs" textLength="250" x="173" y="166.4818">forgotten_password.forgot_password</text><!--MD5=[180c0ae49cb2ddce183080d5da7a87a5]
entity forgotten_password.send_reset--><ellipse cx="173" cy="259.0158" fill="#FEFECE" filter="url(#f1tj1472rm7a66)" rx="8" ry="8" style="stroke: #A80036; stroke-width: 1.5;"/><path d="M173,267.0158 L173,294.0158 M160,275.0158 L186,275.0158 M173,294.0158 L160,309.0158 M173,294.0158 L186,309.0158 " fill="none" filter="url(#f1tj1472rm7a66)" style="stroke: #A80036; stroke-width: 1.5;"/><text fill="#000000" font-family="sans-serif" font-size="14" lengthAdjust="spacingAndGlyphs" textLength="211" x="67.5" y="329.4818">forgotten_password.send_reset</text><!--MD5=[f03cb0c05c63227993820e69574dbfd2]
entity forgotten_password.reset_password--><ellipse cx="173" cy="424.0158" fill="#FEFECE" filter="url(#f1tj1472rm7a66)" rx="8" ry="8" style="stroke: #A80036; stroke-width: 1.5;"/><path d="M173,432.0158 L173,459.0158 M160,440.0158 L186,440.0158 M173,459.0158 L160,474.0158 M173,459.0158 L186,474.0158 " fill="none" filter="url(#f1tj1472rm7a66)" style="stroke: #A80036; stroke-width: 1.5;"/><text fill="#000000" font-family="sans-serif" font-size="14" lengthAdjust="spacingAndGlyphs" textLength="243" x="51.5" y="494.4818">forgotten_password.reset_password</text><!--MD5=[4db54872202cf1a1d8660d995de61d3f]
entity forgotten_password.success--><ellipse cx="133" cy="589.0158" fill="#FEFECE" filter="url(#f1tj1472rm7a66)" rx="8" ry="8" style="stroke: #A80036; stroke-width: 1.5;"/><path d="M133,597.0158 L133,624.0158 M120,605.0158 L146,605.0158 M133,624.0158 L120,639.0158 M133,624.0158 L146,639.0158 " fill="none" filter="url(#f1tj1472rm7a66)" style="stroke: #A80036; stroke-width: 1.5;"/><text fill="#000000" font-family="sans-serif" font-size="14" lengthAdjust="spacingAndGlyphs" textLength="190" x="38" y="659.4818">forgotten_password.success</text><!--MD5=[0c0778e281537ceda16fc621e1bfc1f7]
entity forgotten_password.forgot_error--><ellipse cx="423" cy="259.0158" fill="#FEFECE" filter="url(#f1tj1472rm7a66)" rx="8" ry="8" style="stroke: #A80036; stroke-width: 1.5;"/><path d="M423,267.0158 L423,294.0158 M410,275.0158 L436,275.0158 M423,294.0158 L410,309.0158 M423,294.0158 L436,309.0158 " fill="none" filter="url(#f1tj1472rm7a66)" style="stroke: #A80036; stroke-width: 1.5;"/><text fill="#000000" font-family="sans-serif" font-size="14" lengthAdjust="spacingAndGlyphs" textLength="219" x="313.5" y="329.4818">forgotten_password.forgot_error</text><!--MD5=[4c679737ac53ce389f9fb005c538ccbe]
entity forgotten_password.reset_password_error--><ellipse cx="405" cy="589.0158" fill="#FEFECE" filter="url(#f1tj1472rm7a66)" rx="8" ry="8" style="stroke: #A80036; stroke-width: 1.5;"/><path d="M405,597.0158 L405,624.0158 M392,605.0158 L418,605.0158 M405,624.0158 L392,639.0158 M405,624.0158 L418,639.0158 " fill="none" filter="url(#f1tj1472rm7a66)" style="stroke: #A80036; stroke-width: 1.5;"/><text fill="#000000" font-family="sans-serif" font-size="14" lengthAdjust="spacingAndGlyphs" textLength="283" x="263.5" y="659.4818">forgotten_password.reset_password_error</text><!--MD5=[5cf34d0e2c1912c53c0a550ead095329]
entity login.login--><ellipse cx="716" cy="96.0158" fill="#FEFECE" filter="url(#f1tj1472rm7a66)" rx="8" ry="8" style="stroke: #A80036; stroke-width: 1.5;"/><path d="M716,104.0158 L716,131.0158 M703,112.0158 L729,112.0158 M716,131.0158 L703,146.0158 M716,131.0158 L729,146.0158 " fill="none" filter="url(#f1tj1472rm7a66)" style="stroke: #A80036; stroke-width: 1.5;"/><text fill="#000000" font-family="sans-serif" font-size="14" lengthAdjust="spacingAndGlyphs" textLength="72" x="680" y="166.4818">login.login</text><!--MD5=[7f37e9d3002e7bb8eef91e34efeb3d27]
entity login.check_mfa--><ellipse cx="666" cy="259.0158" fill="#FEFECE" filter="url(#f1tj1472rm7a66)" rx="8" ry="8" style="stroke: #A80036; stroke-width: 1.5;"/><path d="M666,267.0158 L666,294.0158 M653,275.0158 L679,275.0158 M666,294.0158 L653,309.0158 M666,294.0158 L679,309.0158 " fill="none" filter="url(#f1tj1472rm7a66)" style="stroke: #A80036; stroke-width: 1.5;"/><text fill="#000000" font-family="sans-serif" font-size="14" lengthAdjust="spacingAndGlyphs" textLength="108" x="612" y="329.4818">login.check_mfa</text><!--MD5=[01f981d8a061c3d50b892c84e338d3a7]
entity login.success--><ellipse cx="648" cy="424.0158" fill="#FEFECE" filter="url(#f1tj1472rm7a66)" rx="8" ry="8" style="stroke: #A80036; stroke-width: 1.5;"/><path d="M648,432.0158 L648,459.0158 M635,440.0158 L661,440.0158 M648,459.0158 L635,474.0158 M648,459.0158 L661,474.0158 " fill="none" filter="url(#f1tj1472rm7a66)" style="stroke: #A80036; stroke-width: 1.5;"/><text fill="#000000" font-family="sans-serif" font-size="14" lengthAdjust="spacingAndGlyphs" textLength="90" x="603" y="494.4818">login.success</text><!--MD5=[108217e866c7f041562232aa29fca1fd]
entity login.login_error--><ellipse cx="811" cy="259.0158" fill="#FEFECE" filter="url(#f1tj1472rm7a66)" rx="8" ry="8" style="stroke: #A80036; stroke-width: 1.5;"/><path d="M811,267.0158 L811,294.0158 M798,275.0158 L824,275.0158 M811,294.0158 L798,309.0158 M811,294.0158 L824,309.0158 " fill="none" filter="url(#f1tj1472rm7a66)" style="stroke: #A80036; stroke-width: 1.5;"/><text fill="#000000" font-family="sans-serif" font-size="14" lengthAdjust="spacingAndGlyphs" textLength="112" x="755" y="329.4818">login.login_error</text><!--MD5=[1885a5b14d92871c8c5991515dcbbefb]
entity login.check_mfa_error--><ellipse cx="802" cy="424.0158" fill="#FEFECE" filter="url(#f1tj1472rm7a66)" rx="8" ry="8" style="stroke: #A80036; stroke-width: 1.5;"/><path d="M802,432.0158 L802,459.0158 M789,440.0158 L815,440.0158 M802,459.0158 L789,474.0158 M802,459.0158 L815,474.0158 " fill="none" filter="url(#f1tj1472rm7a66)" style="stroke: #A80036; stroke-width: 1.5;"/><text fill="#000000" font-family="sans-serif" font-size="14" lengthAdjust="spacingAndGlyphs" textLength="148" x="728" y="494.4818">login.check_mfa_error</text><!--MD5=[19ecbc8944ddece7cdc444a8380897eb]
entity policies.password_expired--><ellipse cx="1321" cy="96.0158" fill="#FEFECE" filter="url(#f1tj1472rm7a66)" rx="8" ry="8" style="stroke: #A80036; stroke-width: 1.5;"/><path d="M1321,104.0158 L1321,131.0158 M1308,112.0158 L1334,112.0158 M1321,131.0158 L1308,146.0158 M1321,131.0158 L1334,146.0158 " fill="none" filter="url(#f1tj1472rm7a66)" style="stroke: #A80036; stroke-width: 1.5;"/><text fill="#000000" font-family="sans-serif" font-size="14" lengthAdjust="spacingAndGlyphs" textLength="177" x="1232.5" y="166.4818">policies.password_expired</text><!--MD5=[e8f244c6f3f3edeaf6ae518da3d57abd]
entity policies.email_reverify--><ellipse cx="1078" cy="96.0158" fill="#FEFECE" filter="url(#f1tj1472rm7a66)" rx="8" ry="8" style="stroke: #A80036; stroke-width: 1.5;"/><path d="M1078,104.0158 L1078,131.0158 M1065,112.0158 L1091,112.0158 M1078,131.0158 L1065,146.0158 M1078,131.0158 L1091,146.0158 " fill="none" filter="url(#f1tj1472rm7a66)" style="stroke: #A80036; stroke-width: 1.5;"/><text fill="#000000" font-family="sans-serif" font-size="14" lengthAdjust="spacingAndGlyphs" textLength="149" x="1003.5" y="166.4818">policies.email_reverify</text><!--MD5=[70fcd8900dad2ef348cf0a7dd6c25158]
entity policies.success--><ellipse cx="1210" cy="259.0158" fill="#FEFECE" filter="url(#f1tj1472rm7a66)" rx="8" ry="8" style="stroke: #A80036; stroke-width: 1.5;"/><path d="M1210,267.0158 L1210,294.0158 M1197,275.0158 L1223,275.0158 M1210,294.0158 L1197,309.0158 M1210,294.0158 L1223,309.0158 " fill="none" filter="url(#f1tj1472rm7a66)" style="stroke: #A80036; stroke-width: 1.5;"/><text fill="#000000" font-family="sans-serif" font-size="14" lengthAdjust="spacingAndGlyphs" textLength="107" x="1156.5" y="329.4818">policies.success</text><!--MD5=[4811b682daa442deab77d2b8bd6ab295]
entity policies.reset_password_error--><ellipse cx="1399" cy="259.0158" fill="#FEFECE" filter="url(#f1tj1472rm7a66)" rx="8" ry="8" style="stroke: #A80036; stroke-width: 1.5;"/><path d="M1399,267.0158 L1399,294.0158 M1386,275.0158 L1412,275.0158 M1399,294.0158 L1386,309.0158 M1399,294.0158 L1412,309.0158 " fill="none" filter="url(#f1tj1472rm7a66)" style="stroke: #A80036; stroke-width: 1.5;"/><text fill="#000000" font-family="sans-serif" font-size="14" lengthAdjust="spacingAndGlyphs" textLength="200" x="1299" y="329.4818">policies.reset_password_error</text><!--MD5=[1316b7624662d93676e1a462390868f6]
entity policies.email_reverify_error--><ellipse cx="1027" cy="259.0158" fill="#FEFECE" filter="url(#f1tj1472rm7a66)" rx="8" ry="8" style="stroke: #A80036; stroke-width: 1.5;"/><path d="M1027,267.0158 L1027,294.0158 M1014,275.0158 L1040,275.0158 M1027,294.0158 L1014,309.0158 M1027,294.0158 L1040,309.0158 " fill="none" filter="url(#f1tj1472rm7a66)" style="stroke: #A80036; stroke-width: 1.5;"/><text fill="#000000" font-family="sans-serif" font-size="14" lengthAdjust="spacingAndGlyphs" textLength="189" x="932.5" y="329.4818">policies.email_reverify_error</text><!--MD5=[f6de70e0fc7efa9927d1f308e54ed948]
entity registration.register_form--><ellipse cx="1668" cy="96.0158" fill="#FEFECE" filter="url(#f1tj1472rm7a66)" rx="8" ry="8" style="stroke: #A80036; stroke-width: 1.5;"/><path d="M1668,104.0158 L1668,131.0158 M1655,112.0158 L1681,112.0158 M1668,131.0158 L1655,146.0158 M1668,131.0158 L1681,146.0158 " fill="none" filter="url(#f1tj1472rm7a66)" style="stroke: #A80036; stroke-width: 1.5;"/><text fill="#000000" font-family="sans-serif" font-size="14" lengthAdjust="spacingAndGlyphs" textLength="174" x="1581" y="166.4818">registration.register_form</text><!--MD5=[6e1ed6670bdce9f0233f2c4034d34a92]
entity registration.email_verify--><ellipse cx="1637" cy="259.0158" fill="#FEFECE" filter="url(#f1tj1472rm7a66)" rx="8" ry="8" style="stroke: #A80036; stroke-width: 1.5;"/><path d="M1637,267.0158 L1637,294.0158 M1624,275.0158 L1650,275.0158 M1637,294.0158 L1624,309.0158 M1637,294.0158 L1650,309.0158 " fill="none" filter="url(#f1tj1472rm7a66)" style="stroke: #A80036; stroke-width: 1.5;"/><text fill="#000000" font-family="sans-serif" font-size="14" lengthAdjust="spacingAndGlyphs" textLength="163" x="1555.5" y="329.4818">registration.email_verify</text><!--MD5=[c8a763885187aed7253f18797003f4b1]
entity registration.success--><ellipse cx="1624" cy="424.0158" fill="#FEFECE" filter="url(#f1tj1472rm7a66)" rx="8" ry="8" style="stroke: #A80036; stroke-width: 1.5;"/><path d="M1624,432.0158 L1624,459.0158 M1611,440.0158 L1637,440.0158 M1624,459.0158 L1611,474.0158 M1624,459.0158 L1637,474.0158 " fill="none" filter="url(#f1tj1472rm7a66)" style="stroke: #A80036; stroke-width: 1.5;"/><text fill="#000000" font-family="sans-serif" font-size="14" lengthAdjust="spacingAndGlyphs" textLength="135" x="1556.5" y="494.4818">registration.success</text><!--MD5=[a70f38b6c598fc3954c570324e90c4e1]
entity registration.register_error--><ellipse cx="1842" cy="259.0158" fill="#FEFECE" filter="url(#f1tj1472rm7a66)" rx="8" ry="8" style="stroke: #A80036; stroke-width: 1.5;"/><path d="M1842,267.0158 L1842,294.0158 M1829,275.0158 L1855,275.0158 M1842,294.0158 L1829,309.0158 M1842,294.0158 L1855,309.0158 " fill="none" filter="url(#f1tj1472rm7a66)" style="stroke: #A80036; stroke-width: 1.5;"/><text fill="#000000" font-family="sans-serif" font-size="14" lengthAdjust="spacingAndGlyphs" textLength="176" x="1754" y="329.4818">registration.register_error</text><!--MD5=[6fbe9680917a90643dd94923745a5d90]
entity registration.email_verify_error--><ellipse cx="1828" cy="424.0158" fill="#FEFECE" filter="url(#f1tj1472rm7a66)" rx="8" ry="8" style="stroke: #A80036; stroke-width: 1.5;"/><path d="M1828,432.0158 L1828,459.0158 M1815,440.0158 L1841,440.0158 M1828,459.0158 L1815,474.0158 M1828,459.0158 L1841,474.0158 " fill="none" filter="url(#f1tj1472rm7a66)" style="stroke: #A80036; stroke-width: 1.5;"/><text fill="#000000" font-family="sans-serif" font-size="14" lengthAdjust="spacingAndGlyphs" textLength="203" x="1726.5" y="494.4818">registration.email_verify_error</text><!--MD5=[d5e1c914626bcb4922717b5c78d83bf3]
link forgotten_password.forgot_password to forgotten_password.forgot_error--><path d="M329.87,170.5558 C347.58,193.3658 369.65,221.7958 387.85,245.2458 " fill="none" id="forgotten_password.forgot_password-&gt;forgotten_password.forgot_error" style="stroke: #A80036; stroke-width: 1.0;"/><polygon fill="#A80036" points="390.97,249.2658,388.5948,239.7077,387.8973,245.3214,382.2836,244.624,390.97,249.2658" style="stroke: #A80036; stroke-width: 1.0;"/><text fill="#000000" font-family="sans-serif" font-size="13" lengthAdjust="spacingAndGlyphs" textLength="30" x="365" y="215.4129">error</text><!--MD5=[3108818ad10d095fdd16864053afbf42]
link forgotten_password.forgot_password to forgotten_password.send_reset--><path d="M266.13,170.5558 C248.42,193.3658 226.35,221.7958 208.15,245.2458 " fill="none" id="forgotten_password.forgot_password-&gt;forgotten_password.send_reset" style="stroke: #A80036; stroke-width: 1.0;"/><polygon fill="#A80036" points="205.03,249.2658,213.7164,244.624,208.1027,245.3214,207.4052,239.7077,205.03,249.2658" style="stroke: #A80036; stroke-width: 1.0;"/><text fill="#000000" font-family="sans-serif" font-size="13" lengthAdjust="spacingAndGlyphs" textLength="15" x="240" y="215.4129">ok</text><!--MD5=[b3e6735be72edf49b02f6ad4e1c2152f]
link forgotten_password.send_reset to forgotten_password.reset_password--><path d="M173,333.6458 C173,356.7158 173,385.5558 173,409.3958 " fill="none" id="forgotten_password.send_reset-&gt;forgotten_password.reset_password" style="stroke: #A80036; stroke-width: 1.0;"/><polygon fill="#A80036" points="173,414.3958,177,405.3958,173,409.3958,169,405.3958,173,414.3958" style="stroke: #A80036; stroke-width: 1.0;"/><text fill="#000000" font-family="sans-serif" font-size="13" lengthAdjust="spacingAndGlyphs" textLength="15" x="174" y="380.4129">ok</text><!--MD5=[50d1f0e4787ea59a56c08bcf3410edc3]
link forgotten_password.reset_password to forgotten_password.reset_password_error--><path d="M231.54,498.6458 C265.34,522.3958 307.84,552.2558 342.31,576.4758 " fill="none" id="forgotten_password.reset_password-&gt;forgotten_password.reset_password_error" style="stroke: #A80036; stroke-width: 1.0;"/><polygon fill="#A80036" points="346.48,579.3958,341.4166,570.9482,342.3892,576.5209,336.8166,577.4935,346.48,579.3958" style="stroke: #A80036; stroke-width: 1.0;"/><text fill="#000000" font-family="sans-serif" font-size="13" lengthAdjust="spacingAndGlyphs" textLength="30" x="303" y="545.4129">error</text><!--MD5=[ead41d10a0ba80e08e9a99d70016f3ba]
link forgotten_password.reset_password to forgotten_password.success--><path d="M162.91,498.6458 C157.25,521.7158 150.17,550.5558 144.32,574.3958 " fill="none" id="forgotten_password.reset_password-&gt;forgotten_password.success" style="stroke: #A80036; stroke-width: 1.0;"/><polygon fill="#A80036" points="143.09,579.3958,149.1103,571.6012,144.2758,574.5385,141.3385,569.704,143.09,579.3958" style="stroke: #A80036; stroke-width: 1.0;"/><text fill="#000000" font-family="sans-serif" font-size="13" lengthAdjust="spacingAndGlyphs" textLength="15" x="155" y="545.4129">ok</text><!--MD5=[f1937448d9bb127805a679959b091c7f]
link login.login to login.login_error--><path d="M740.22,170.5558 C753.62,193.2758 770.31,221.5558 784.12,244.9558 " fill="none" id="login.login-&gt;login.login_error" style="stroke: #A80036; stroke-width: 1.0;"/><polygon fill="#A80036" points="786.66,249.2658,785.5601,239.4786,784.1318,244.9521,778.6582,243.5238,786.66,249.2658" style="stroke: #A80036; stroke-width: 1.0;"/><text fill="#000000" font-family="sans-serif" font-size="13" lengthAdjust="spacingAndGlyphs" textLength="30" x="767" y="215.4129">error</text><!--MD5=[d139bbd5ce456879c1e679be92129f4d]
link login.login to login.check_mfa--><path d="M703.25,170.5558 C696.26,193.0858 687.56,221.0958 680.33,244.3758 " fill="none" id="login.login-&gt;login.check_mfa" style="stroke: #A80036; stroke-width: 1.0;"/><polygon fill="#A80036" points="678.81,249.2658,685.3048,241.862,680.2965,244.4919,677.6665,239.4836,678.81,249.2658" style="stroke: #A80036; stroke-width: 1.0;"/><text fill="#000000" font-family="sans-serif" font-size="13" lengthAdjust="spacingAndGlyphs" textLength="15" x="693" y="215.4129">ok</text><!--MD5=[e17905fa4f762437e4e0534a9c697cb6]
link login.check_mfa to login.check_mfa_error--><path d="M700.32,333.6458 C719.81,357.0058 744.23,386.2858 764.26,410.2858 " fill="none" id="login.check_mfa-&gt;login.check_mfa_error" style="stroke: #A80036; stroke-width: 1.0;"/><polygon fill="#A80036" points="767.69,414.3958,764.9873,404.9251,764.4834,410.5594,758.8491,410.0556,767.69,414.3958" style="stroke: #A80036; stroke-width: 1.0;"/><text fill="#000000" font-family="sans-serif" font-size="13" lengthAdjust="spacingAndGlyphs" textLength="30" x="743" y="380.4129">error</text><!--MD5=[81398604f524aa622a054f0bda218f83]
link login.check_mfa to login.success--><path d="M661.46,333.6458 C658.91,356.7158 655.73,385.5558 653.09,409.3958 " fill="none" id="login.check_mfa-&gt;login.success" style="stroke: #A80036; stroke-width: 1.0;"/><polygon fill="#A80036" points="652.54,414.3958,657.4933,405.8832,653.0828,409.4254,649.5406,405.0148,652.54,414.3958" style="stroke: #A80036; stroke-width: 1.0;"/><text fill="#000000" font-family="sans-serif" font-size="13" lengthAdjust="spacingAndGlyphs" textLength="15" x="658" y="380.4129">ok</text><!--MD5=[d9709f516d7b915adbaa17b2fa1ab52e]
link policies.password_expired to policies.reset_password_error--><path d="M1340.88,170.5558 C1351.84,193.1858 1365.48,221.3258 1376.79,244.6658 " fill="none" id="policies.password_expired-&gt;policies.reset_password_error" style="stroke: #A80036; stroke-width: 1.0;"/><polygon fill="#A80036" points="1379.02,249.2658,1378.7112,239.4218,1376.8471,244.7627,1371.5062,242.8985,1379.02,249.2658" style="stroke: #A80036; stroke-width: 1.0;"/><text fill="#000000" font-family="sans-serif" font-size="13" lengthAdjust="spacingAndGlyphs" textLength="30" x="1363" y="215.4129">error</text><!--MD5=[b6b6ac4d992258ab6bb202915e54156c]
link policies.password_expired to policies.success--><path d="M1292.7,170.5558 C1277.04,193.2758 1257.54,221.5558 1241.41,244.9558 " fill="none" id="policies.password_expired-&gt;policies.success" style="stroke: #A80036; stroke-width: 1.0;"/><polygon fill="#A80036" points="1238.44,249.2658,1246.847,244.1354,1241.2823,245.1523,1240.2654,239.5876,1238.44,249.2658" style="stroke: #A80036; stroke-width: 1.0;"/><text fill="#000000" font-family="sans-serif" font-size="13" lengthAdjust="spacingAndGlyphs" textLength="15" x="1269" y="215.4129">ok</text><!--MD5=[2383f25a35aa1eb080b18f639d46f5c1]
link policies.email_reverify to policies.email_reverify_error--><path d="M1065,170.5558 C1057.86,193.0858 1048.99,221.0958 1041.62,244.3758 " fill="none" id="policies.email_reverify-&gt;policies.email_reverify_error" style="stroke: #A80036; stroke-width: 1.0;"/><polygon fill="#A80036" points="1040.07,249.2658,1046.5913,241.8853,1041.5736,244.4973,1038.9616,239.4796,1040.07,249.2658" style="stroke: #A80036; stroke-width: 1.0;"/><text fill="#000000" font-family="sans-serif" font-size="13" lengthAdjust="spacingAndGlyphs" textLength="30" x="1055" y="215.4129">error</text><!--MD5=[4adb57f867be6af993907784b744bfe9]
link policies.email_reverify to policies.success--><path d="M1111.65,170.5558 C1130.35,193.3658 1153.66,221.7958 1172.89,245.2458 " fill="none" id="policies.email_reverify-&gt;policies.success" style="stroke: #A80036; stroke-width: 1.0;"/><polygon fill="#A80036" points="1176.18,249.2658,1173.5748,239.7678,1173.013,245.3967,1167.3841,244.835,1176.18,249.2658" style="stroke: #A80036; stroke-width: 1.0;"/><text fill="#000000" font-family="sans-serif" font-size="13" lengthAdjust="spacingAndGlyphs" textLength="15" x="1148" y="215.4129">ok</text><!--MD5=[d712269bfd3655e9b6ed5a05d1084c7a]
link registration.register_form to registration.register_error--><path d="M1712.36,170.5558 C1737.21,193.5558 1768.24,222.2658 1793.71,245.8258 " fill="none" id="registration.register_form-&gt;registration.register_error" style="stroke: #A80036; stroke-width: 1.0;"/><polygon fill="#A80036" points="1797.42,249.2658,1793.5345,240.2158,1793.7515,245.8685,1788.0988,246.0855,1797.42,249.2658" style="stroke: #A80036; stroke-width: 1.0;"/><text fill="#000000" font-family="sans-serif" font-size="13" lengthAdjust="spacingAndGlyphs" textLength="30" x="1761" y="215.4129">error</text><!--MD5=[5fd002664c9134f8ffa20b9d5d3d5f5b]
link registration.register_form to registration.email_verify--><path d="M1660.1,170.5558 C1655.78,192.9958 1650.41,220.8558 1645.94,244.0858 " fill="none" id="registration.register_form-&gt;registration.email_verify" style="stroke: #A80036; stroke-width: 1.0;"/><polygon fill="#A80036" points="1644.94,249.2658,1650.5642,241.1808,1645.8821,244.3554,1642.7075,239.6734,1644.94,249.2658" style="stroke: #A80036; stroke-width: 1.0;"/><text fill="#000000" font-family="sans-serif" font-size="13" lengthAdjust="spacingAndGlyphs" textLength="15" x="1654" y="215.4129">ok</text><!--MD5=[5967df0024cb7288315c9641a3e4a37d]
link registration.email_verify to registration.email_verify_error--><path d="M1685.2,333.6458 C1712.79,357.1958 1747.44,386.7658 1775.7,410.8758 " fill="none" id="registration.email_verify-&gt;registration.email_verify_error" style="stroke: #A80036; stroke-width: 1.0;"/><polygon fill="#A80036" points="1779.82,414.3958,1775.5541,405.5188,1776.0107,411.1572,1770.3723,411.6137,1779.82,414.3958" style="stroke: #A80036; stroke-width: 1.0;"/><text fill="#000000" font-family="sans-serif" font-size="13" lengthAdjust="spacingAndGlyphs" textLength="30" x="1744" y="380.4129">error</text><!--MD5=[bd1945bcdfa83ed11358fa254945fc44]
link registration.email_verify to registration.success--><path d="M1633.72,333.6458 C1631.88,356.7158 1629.58,385.5558 1627.68,409.3958 " fill="none" id="registration.email_verify-&gt;registration.success" style="stroke: #A80036; stroke-width: 1.0;"/><polygon fill="#A80036" points="1627.28,414.3958,1631.9869,405.7446,1627.6799,409.4119,1624.0126,405.1048,1627.28,414.3958" style="stroke: #A80036; stroke-width: 1.0;"/><text fill="#000000" font-family="sans-serif" font-size="13" lengthAdjust="spacingAndGlyphs" textLength="15" x="1631" y="380.4129">ok</text><!--MD5=[c7b76ede43b585dc6e4c9188df528755]
@startuml
title User Flow Diagram
package "forgotten_password" {
    forgotten_password.forgot_password as "forgotten_password.forgot_password"
    forgotten_password.send_reset as "forgotten_password.send_reset"
    forgotten_password.reset_password as "forgotten_password.reset_password"
    forgotten_password.success as "forgotten_password.success"
    forgotten_password.forgot_password - -> forgotten_password.forgot_error : error
    forgotten_password.forgot_password - -> forgotten_password.send_reset : ok
    forgotten_password.send_reset - -> forgotten_password.reset_password : ok
    forgotten_password.reset_password - -> forgotten_password.reset_password_error : error
    forgotten_password.reset_password - -> forgotten_password.success : ok
}
package "login" {
    login.login as "login.login"
    login.check_mfa as "login.check_mfa"
    login.success as "login.success"
    login.login - -> login.login_error : error
    login.login - -> login.check_mfa : ok
    login.check_mfa - -> login.check_mfa_error : error
    login.check_mfa - -> login.success : ok
}
package "policies" {
    policies.password_expired as "policies.password_expired"
    policies.email_reverify as "policies.email_reverify"
    policies.success as "policies.success"
    policies.password_expired - -> policies.reset_password_error : error
    policies.password_expired - -> policies.success : ok
    policies.email_reverify - -> policies.email_reverify_error : error
    policies.email_reverify - -> policies.success : ok
}
package "registration" {
    registration.register_form as "registration.register_form"
    registration.email_verify as "registration.email_verify"
    registration.success as "registration.success"
    registration.register_form - -> registration.register_error : error
    registration.register_form - -> registration.email_verify : ok
    registration.email_verify - -> registration.email_verify_error : error
    registration.email_verify - -> registration.success : ok
}

@enduml

PlantUML version 1.2020.02(Sun Mar 01 11:22:07 CET 2020)
(GPL source distribution)
Java Runtime: OpenJDK Runtime Environment
JVM: OpenJDK 64-Bit Server VM
Java Version: 21.0.9+10-Ubuntu-125.10
Operating System: Linux
Default Encoding: UTF-8
Language: en
Country: US
--></g></svg>