<?xml version="1.0" encoding="UTF-8" standalone="no"?><svg xmlns="http://www.w3.org/2000/svg" xmlns:xlink="http://www.w3.org/1999/xlink" contentScriptType="application/ecmascript" contentStyleType="text/css" height="553px" preserveAspectRatio="none" style="width:940px;height:553px;" version="1.1" viewBox="0 0 940 553" width="940px" zoomAndPan="magnify"><defs><filter height="300%" id="fvjffproy5x02" width="300%" x="-1" y="-1"><feGaussianBlur result="blurOut" stdDeviation="2.0"/><feColorMatrix in="blurOut" result="blurOut2" type="matrix" values="0 0 0 0 0 0 0 0 0 0 0 0 0 0 0 0 0 0 .4 0"/><feOffset dx="4.0" dy="4.0" in="blurOut2" result="blurOut3"/><feBlend in="SourceGraphic" in2="blurOut3" mode="normal"/></filter></defs><g><!--MD5=[70653a5b1f9b525f1cdde3075d09e3e2]
entity modules.daily.storage--><rect fill="#FEFECE" filter="url(#fvjffproy5x02)" height="39.0679" style="stroke: #A80036; stroke-width: 1.5;" width="169" x="714.5" y="404"/><rect fill="#FEFECE" height="5" style="stroke: #A80036; stroke-width: 1.5;" width="10" x="709.5" y="409"/><rect fill="#FEFECE" height="5" style="stroke: #A80036; stroke-width: 1.5;" width="10" x="709.5" y="433.0679"/><text fill="#000000" font-family="sans-serif" font-size="14" lengthAdjust="spacingAndGlyphs" textLength="149" x="724.5" y="428.9659">modules.daily.storage</text><!--MD5=[e754ab731a5fac753e1fcff3f7549f66]
entity modules.user.model--><rect fill="#FEFECE" filter="url(#fvjffproy5x02)" height="39.0679" style="stroke: #A80036; stroke-width: 1.5;" width="158" x="380" y="503"/><rect fill="#FEFECE" height="5" style="stroke: #A80036; stroke-width: 1.5;" width="10" x="375" y="508"/><rect fill="#FEFECE" height="5" style="stroke: #A80036; stroke-width: 1.5;" width="10" x="375" y="532.0679"/><text fill="#000000" font-family="sans-serif" font-size="14" lengthAdjust="spacingAndGlyphs" textLength="138" x="390" y="527.9659">modules.user.model</text><!--MD5=[12f8cd02962a3d39e3611164da4558e4]
entity modules.daily.view--><rect fill="#FEFECE" filter="url(#fvjffproy5x02)" height="39.0679" style="stroke: #A80036; stroke-width: 1.5;" width="148" x="6" y="404"/><rect fill="#FEFECE" height="5" style="stroke: #A80036; stroke-width: 1.5;" width="10" x="1" y="409"/><rect fill="#FEFECE" height="5" style="stroke: #A80036; stroke-width: 1.5;" width="10" x="1" y="433.0679"/><text fill="#000000" font-family="sans-serif" font-size="14" lengthAdjust="spacingAndGlyphs" textLength="128" x="16" y="428.9659">modules.daily.view</text><!--MD5=[b058803b7c17bd57d3037665446cb1cd]
entity modules.theme--><rect fill="#FEFECE" filter="url(#fvjffproy5x02)" height="39.0679" style="stroke: #A80036; stroke-width: 1.5;" width="125" x="118.5" y="503"/><rect fill="#FEFECE" height="5" style="stroke: #A80036; stroke-width: 1.5;" width="10" x="113.5" y="508"/><rect fill="#FEFECE" height="5" style="stroke: #A80036; stroke-width: 1.5;" width="10" x="113.5" y="532.0679"/><text fill="#000000" font-family="sans-serif" font-size="14" lengthAdjust="spacingAndGlyphs" textLength="105" x="128.5" y="527.9659">modules.theme</text><!--MD5=[f877165a4d58e799535d48948a93250d]
entity modules.daily--><rect fill="#FEFECE" filter="url(#fvjffproy5x02)" height="39.0679" style="stroke: #A80036; stroke-width: 1.5;" width="114" x="253" y="305"/><rect fill="#FEFECE" height="5" style="stroke: #A80036; stroke-width: 1.5;" width="10" x="248" y="310"/><rect fill="#FEFECE" height="5" style="stroke: #A80036; stroke-width: 1.5;" width="10" x="248" y="334.0679"/><text fill="#000000" font-family="sans-serif" font-size="14" lengthAdjust="spacingAndGlyphs" textLength="94" x="263" y="329.9659">modules.daily</text><!--MD5=[ea7e9ea28da1f561e2c8bb6ffaeaca87]
entity modules.user.storage--><rect fill="#FEFECE" filter="url(#fvjffproy5x02)" height="39.0679" style="stroke: #A80036; stroke-width: 1.5;" width="167" x="512.5" y="404"/><rect fill="#FEFECE" height="5" style="stroke: #A80036; stroke-width: 1.5;" width="10" x="507.5" y="409"/><rect fill="#FEFECE" height="5" style="stroke: #A80036; stroke-width: 1.5;" width="10" x="507.5" y="433.0679"/><text fill="#000000" font-family="sans-serif" font-size="14" lengthAdjust="spacingAndGlyphs" textLength="147" x="522.5" y="428.9659">modules.user.storage</text><!--MD5=[fc3eca692cb92ca5cc92007db2fffd99]
entity modules.user.view--><rect fill="#FEFECE" filter="url(#fvjffproy5x02)" height="39.0679" style="stroke: #A80036; stroke-width: 1.5;" width="146" x="260" y="404"/><rect fill="#FEFECE" height="5" style="stroke: #A80036; stroke-width: 1.5;" width="10" x="255" y="409"/><rect fill="#FEFECE" height="5" style="stroke: #A80036; stroke-width: 1.5;" width="10" x="255" y="433.0679"/><text fill="#000000" font-family="sans-serif" font-size="14" lengthAdjust="spacingAndGlyphs" textLength="126" x="270" y="428.9659">modules.user.view</text><!--MD5=[3d386bf1e977a55214e0c41aee5a0db6]
entity modules.user.service--><rect fill="#FEFECE" filter="url(#fvjffproy5x02)" height="39.0679" style="stroke: #A80036; stroke-width: 1.5;" width="163" x="402.5" y="305"/><rect fill="#FEFECE" height="5" style="stroke: #A80036; stroke-width: 1.5;" width="10" x="397.5" y="310"/><rect fill="#FEFECE" height="5" style="stroke: #A80036; stroke-width: 1.5;" width="10" x="397.5" y="334.0679"/><text fill="#000000" font-family="sans-serif" font-size="14" lengthAdjust="spacingAndGlyphs" textLength="143" x="412.5" y="329.9659">modules.user.service</text><!--MD5=[4fd947441d2745fb5b091f2e361ec41e]
entity modules.user--><rect fill="#FEFECE" filter="url(#fvjffproy5x02)" height="39.0679" style="stroke: #A80036; stroke-width: 1.5;" width="112" x="495" y="206"/><rect fill="#FEFECE" height="5" style="stroke: #A80036; stroke-width: 1.5;" width="10" x="490" y="211"/><rect fill="#FEFECE" height="5" style="stroke: #A80036; stroke-width: 1.5;" width="10" x="490" y="235.0679"/><text fill="#000000" font-family="sans-serif" font-size="14" lengthAdjust="spacingAndGlyphs" textLength="92" x="505" y="230.9659">modules.user</text><!--MD5=[f04bcface800b3498ac77214835b90cd]
entity cmd--><rect fill="#FEFECE" filter="url(#fvjffproy5x02)" height="39.0679" style="stroke: #A80036; stroke-width: 1.5;" width="49" x="603.5" y="107"/><rect fill="#FEFECE" height="5" style="stroke: #A80036; stroke-width: 1.5;" width="10" x="598.5" y="112"/><rect fill="#FEFECE" height="5" style="stroke: #A80036; stroke-width: 1.5;" width="10" x="598.5" y="136.0679"/><text fill="#000000" font-family="sans-serif" font-size="14" lengthAdjust="spacingAndGlyphs" textLength="29" x="613.5" y="131.9659">cmd</text><!--MD5=[272762c3c9b9adc7dace7ff900d717df]
entity modules.expvar--><rect fill="#FEFECE" filter="url(#fvjffproy5x02)" height="39.0679" style="stroke: #A80036; stroke-width: 1.5;" width="127" x="642.5" y="206"/><rect fill="#FEFECE" height="5" style="stroke: #A80036; stroke-width: 1.5;" width="10" x="637.5" y="211"/><rect fill="#FEFECE" height="5" style="stroke: #A80036; stroke-width: 1.5;" width="10" x="637.5" y="235.0679"/><text fill="#000000" font-family="sans-serif" font-size="14" lengthAdjust="spacingAndGlyphs" textLength="107" x="652.5" y="230.9659">modules.expvar</text><!--MD5=[b1e4177e5ff41de98251874ff38e0060]
entity modules.assets--><rect fill="#FEFECE" filter="url(#fvjffproy5x02)" height="39.0679" style="stroke: #A80036; stroke-width: 1.5;" width="124" x="805" y="206"/><rect fill="#FEFECE" height="5" style="stroke: #A80036; stroke-width: 1.5;" width="10" x="800" y="211"/><rect fill="#FEFECE" height="5" style="stroke: #A80036; stroke-width: 1.5;" width="10" x="800" y="235.0679"/><text fill="#000000" font-family="sans-serif" font-size="14" lengthAdjust="spacingAndGlyphs" textLength="104" x="815" y="230.9659">modules.assets</text><!--MD5=[4d457c8a73567da70daf18a5ebfa5d8c]
entity autoload--><rect fill="#FEFECE" filter="url(#fvjffproy5x02)" height="39.0679" style="stroke: #A80036; stroke-width: 1.5;" width="79" x="531.5" y="8"/><rect fill="#FEFECE" height="5" style="stroke: #A80036; stroke-width: 1.5;" width="10" x="526.5" y="13"/><rect fill="#FEFECE" height="5" style="stroke: #A80036; stroke-width: 1.5;" width="10" x="526.5" y="37.0679"/><text fill="#000000" font-family="sans-serif" font-size="14" lengthAdjust="spacingAndGlyphs" textLength="59" x="541.5" y="32.9659">autoload</text><!--MD5=[f86a9ae790bc613177808908d297126a]
entity cmd.app--><rect fill="#FEFECE" filter="url(#fvjffproy5x02)" height="39.0679" style="stroke: #A80036; stroke-width: 1.5;" width="79" x="645.5" y="8"/><rect fill="#FEFECE" height="5" style="stroke: #A80036; stroke-width: 1.5;" width="10" x="640.5" y="13"/><rect fill="#FEFECE" height="5" style="stroke: #A80036; stroke-width: 1.5;" width="10" x="640.5" y="37.0679"/><text fill="#000000" font-family="sans-serif" font-size="14" lengthAdjust="spacingAndGlyphs" textLength="59" x="655.5" y="32.9659">cmd.app</text><!--MD5=[be6cb1be6f8b5aa06e72a391461212e2]
link modules.daily.storage to modules.user.model--><path d="M733.85,443.09 C679.74,458.52 602.39,480.59 543.52,497.39 " fill="none" id="modules.daily.storage-&gt;modules.user.model" style="stroke: #A80036; stroke-width: 1.0;"/><polygon fill="none" points="545.09,504.22,523.93,502.98,541.24,490.76,545.09,504.22" style="stroke: #A80036; stroke-width: 1.0;"/><!--MD5=[95ccbfbcb66d1d6bed0c430a645692bd]
link modules.daily.view to modules.user.model--><path d="M152.63,443.09 C213.6,458.69 301.05,481.07 366.92,497.93 " fill="none" id="modules.daily.view-&gt;modules.user.model" style="stroke: #A80036; stroke-width: 1.0;"/><polygon fill="none" points="368.98,491.23,386.62,502.98,365.51,504.8,368.98,491.23" style="stroke: #A80036; stroke-width: 1.0;"/><!--MD5=[1bad12a59fb2e201258a376405d2daa2]
link modules.daily.view to modules.theme--><path d="M99.47,443.2 C112.89,456.08 131.07,473.55 146.86,488.71 " fill="none" id="modules.daily.view-&gt;modules.theme" style="stroke: #A80036; stroke-width: 1.0;"/><polygon fill="none" points="152.01,483.95,161.59,502.85,142.31,494.05,152.01,483.95" style="stroke: #A80036; stroke-width: 1.0;"/><!--MD5=[6b36463e1e9144a414557f48ca0c923f]
link modules.daily to modules.user.storage--><path d="M364.81,344.09 C409.52,359.25 473.12,380.82 522.3,397.5 " fill="none" id="modules.daily-&gt;modules.user.storage" style="stroke: #A80036; stroke-width: 1.0;"/><polygon fill="none" points="524.69,390.92,541.38,403.98,520.19,404.18,524.69,390.92" style="stroke: #A80036; stroke-width: 1.0;"/><!--MD5=[d227742effab985a67a5ad33649680e4]
link modules.daily to modules.user.model--><path d="M285.81,344.02 C257.87,367.7 218.58,409.62 242,443 C268.89,481.32 316.44,501.02 360.2,511.1 " fill="none" id="modules.daily-&gt;modules.user.model" style="stroke: #A80036; stroke-width: 1.0;"/><polygon fill="none" points="361.73,504.27,379.94,515.09,358.95,517.99,361.73,504.27" style="stroke: #A80036; stroke-width: 1.0;"/><!--MD5=[b2a93e6f1005793a1707486382d31084]
link modules.daily to modules.user.view--><path d="M314.43,344.2 C317.11,355.47 320.61,370.25 323.85,383.93 " fill="none" id="modules.daily-&gt;modules.user.view" style="stroke: #A80036; stroke-width: 1.0;"/><polygon fill="none" points="330.78,382.78,328.58,403.85,317.15,386.01,330.78,382.78" style="stroke: #A80036; stroke-width: 1.0;"/><!--MD5=[ba99e18b5ec559ddb684e0411ca9b626]
link modules.user.storage to modules.user.model--><path d="M569.59,443.2 C550.35,456.82 523.88,475.56 501.66,491.29 " fill="none" id="modules.user.storage-&gt;modules.user.model" style="stroke: #A80036; stroke-width: 1.0;"/><polygon fill="none" points="505.7,497.01,485.33,502.85,497.61,485.58,505.7,497.01" style="stroke: #A80036; stroke-width: 1.0;"/><!--MD5=[93916e426df14fbc1abcea91f48ccbf4]
link modules.user.view to modules.theme--><path d="M303.69,443.2 C282.03,457.02 252.11,476.12 227.24,491.99 " fill="none" id="modules.user.view-&gt;modules.theme" style="stroke: #A80036; stroke-width: 1.0;"/><polygon fill="none" points="230.84,498,210.22,502.85,223.31,486.19,230.84,498" style="stroke: #A80036; stroke-width: 1.0;"/><!--MD5=[fb1cccd521645a1716e37cd0d868cde4]
link modules.user.view to modules.user.model--><path d="M357.29,443.2 C374.73,456.62 398.61,475.01 418.85,490.59 " fill="none" id="modules.user.view-&gt;modules.user.model" style="stroke: #A80036; stroke-width: 1.0;"/><polygon fill="none" points="423.2,485.11,434.78,502.85,414.66,496.2,423.2,485.11" style="stroke: #A80036; stroke-width: 1.0;"/><!--MD5=[2e70ffa58385e5094e6efc438a5dbdd4]
link modules.user.service to modules.user.storage--><path d="M505.59,344.2 C520.78,357.35 541.47,375.28 559.23,390.66 " fill="none" id="modules.user.service-&gt;modules.user.storage" style="stroke: #A80036; stroke-width: 1.0;"/><polygon fill="none" points="563.94,385.47,574.47,403.85,554.77,396.05,563.94,385.47" style="stroke: #A80036; stroke-width: 1.0;"/><!--MD5=[a9ef4a7e5379be3b545cc5ea067ea85e]
link modules.user.service to modules.user.model--><path d="M481.6,344.29 C477.55,376.05 469.27,440.95 463.94,482.77 " fill="none" id="modules.user.service-&gt;modules.user.model" style="stroke: #A80036; stroke-width: 1.0;"/><polygon fill="none" points="470.86,483.81,461.39,502.76,456.98,482.04,470.86,483.81" style="stroke: #A80036; stroke-width: 1.0;"/><!--MD5=[3d1debb29c41ba68e6546bd0e7247e08]
link modules.user.service to modules.user.view--><path d="M454.89,344.2 C433.37,358.02 403.65,377.12 378.94,392.99 " fill="none" id="modules.user.service-&gt;modules.user.view" style="stroke: #A80036; stroke-width: 1.0;"/><polygon fill="none" points="382.64,398.93,362.02,403.85,375.07,387.16,382.64,398.93" style="stroke: #A80036; stroke-width: 1.0;"/><!--MD5=[fc5a5154da35bc2e667834f10081ebc2]
link modules.user to modules.user.service--><path d="M538.08,245.2 C529.65,257.41 518.37,273.74 508.3,288.32 " fill="none" id="modules.user-&gt;modules.user.service" style="stroke: #A80036; stroke-width: 1.0;"/><polygon fill="none" points="514,292.38,496.88,304.85,502.49,284.42,514,292.38" style="stroke: #A80036; stroke-width: 1.0;"/><!--MD5=[604cc0ae5a8c0506d9ef4ef05e1a05f0]
link modules.user to modules.user.storage--><path d="M560.27,245.04 C567.65,260.64 577.6,283.75 583,305 C589.55,330.8 592.8,360.61 594.41,383.75 " fill="none" id="modules.user-&gt;modules.user.storage" style="stroke: #A80036; stroke-width: 1.0;"/><polygon fill="none" points="601.41,383.55,595.53,403.9,587.43,384.32,601.41,383.55" style="stroke: #A80036; stroke-width: 1.0;"/><!--MD5=[33ede610b715437fe643e4fa1401eea5]
link modules.user to modules.user.model--><path d="M602.74,245.07 C691.67,278.16 867.22,348.99 901,404 C910.07,418.77 912.13,429.72 901,443 C858.2,494.07 675.4,511.94 558.7,518.17 " fill="none" id="modules.user-&gt;modules.user.model" style="stroke: #A80036; stroke-width: 1.0;"/><polygon fill="none" points="558.76,525.18,538.44,519.18,558.07,511.2,558.76,525.18" style="stroke: #A80036; stroke-width: 1.0;"/><!--MD5=[8514f92ede2affa0ec3a684d27154838]
link cmd to modules.expvar--><path d="M643.04,146.2 C652.97,158.55 666.28,175.1 678.1,189.8 " fill="none" id="cmd-&gt;modules.expvar" style="stroke: #A80036; stroke-width: 1.0;"/><polygon fill="none" points="683.93,185.88,691.01,205.85,673.02,194.66,683.93,185.88" style="stroke: #A80036; stroke-width: 1.0;"/><!--MD5=[749fa98414cf6ff8e637bd4e48ad1b1d]
link cmd to modules.user--><path d="M613.15,146.2 C603.35,158.55 590.21,175.1 578.54,189.8 " fill="none" id="cmd-&gt;modules.user" style="stroke: #A80036; stroke-width: 1.0;"/><polygon fill="none" points="583.72,194.54,565.8,205.85,572.75,185.84,583.72,194.54" style="stroke: #A80036; stroke-width: 1.0;"/><!--MD5=[734904b19475a51bb50a84699421fd59]
link cmd to modules.assets--><path d="M652.68,137.52 C687.74,151.75 753.19,178.31 802.58,198.36 " fill="none" id="cmd-&gt;modules.assets" style="stroke: #A80036; stroke-width: 1.0;"/><polygon fill="none" points="805.39,191.94,821.29,205.95,800.13,204.91,805.39,191.94" style="stroke: #A80036; stroke-width: 1.0;"/><!--MD5=[d91cc945a359d493348d23699532d353]
link cmd to modules.daily--><path d="M603.39,139.03 C573.04,153.54 520.17,179.75 477,206 C432.32,233.16 383.69,268.03 350.49,292.71 " fill="none" id="cmd-&gt;modules.daily" style="stroke: #A80036; stroke-width: 1.0;"/><polygon fill="none" points="354.4,298.52,334.2,304.92,346.01,287.32,354.4,298.52" style="stroke: #A80036; stroke-width: 1.0;"/><!--MD5=[2c92e882f29b5451db4b594aa869b38c]
link autoload to cmd--><path d="M581.99,47.2 C589.01,59.15 598.34,75.02 606.76,89.36 " fill="none" id="autoload-&gt;cmd" style="stroke: #A80036; stroke-width: 1.0;"/><polygon fill="none" points="612.95,86.07,617.04,106.85,600.88,93.16,612.95,86.07" style="stroke: #A80036; stroke-width: 1.0;"/><!--MD5=[55b96c0bb08049c7b78a6bfccef0c86d]
link cmd.app to cmd--><path d="M674.01,47.2 C666.99,59.15 657.66,75.02 649.24,89.36 " fill="none" id="cmd.app-&gt;cmd" style="stroke: #A80036; stroke-width: 1.0;"/><polygon fill="none" points="655.12,93.16,638.96,106.85,643.05,86.07,655.12,93.16" style="stroke: #A80036; stroke-width: 1.0;"/><!--MD5=[cae6356aa026c1d32954f8ce216bdef6]
@startuml
[modules.daily.storage] - -|> [modules.user.model]
[modules.daily.view] - -|> [modules.user.model]
[modules.daily.view] - -|> [modules.theme]
[modules.daily] - -|> [modules.user.storage]
[modules.daily] - -|> [modules.user.model]
[modules.daily] - -|> [modules.user.view]
[modules.user.storage] - -|> [modules.user.model]
[modules.user.view] - -|> [modules.theme]
[modules.user.view] - -|> [modules.user.model]
[modules.user.service] - -|> [modules.user.storage]
[modules.user.service] - -|> [modules.user.model]
[modules.user.service] - -|> [modules.user.view]
[modules.user] - -|> [modules.user.service]
[modules.user] - -|> [modules.user.storage]
[modules.user] - -|> [modules.user.model]
[cmd] - -|> [modules.expvar]
[cmd] - -|> [modules.user]
[cmd] - -|> [modules.assets]
[cmd] - -|> [modules.daily]
[autoload] - -|> [cmd]
[cmd.app] - -|> [cmd]
@enduml

PlantUML version 1.2020.02(Sun Mar 01 11:22:07 CET 2020)
(GPL source distribution)
Java Runtime: OpenJDK Runtime Environment
JVM: OpenJDK 64-Bit Server VM
Java Version: 21.0.8+9-Ubuntu-0ubuntu125.04.1
Operating System: Linux
Default Encoding: UTF-8
Language: en
Country: US
--></g></svg>